# xmcd
#
# Track frame offsets:
#	150
#	10675
#	17302
#	26045
#	37575
#	52530
#	60600
#	67197
#	77775
#	88162
#	99815
#	112272
#	117482
#
# Disc length: 1721 seconds
#
# Revision: 1
# Processed by: cddbd v1.5.1PL0 Copyright (c) Steve Scherf et al.
# Submitted via: audiograbber 1.83.01
#
DISCID=9506b70d
DTITLE=Lieder der Prärie - Lieder der Prärie
DYEAR=1900
DGENRE=Country
TTITLE0=Beans, Bacon and Gravy
TTITLE1=Dickson
TTITLE2=Oh Susanna
TTITLE3=Clementine
TTITLE4=On Top of Old Smoky
TTITLE5=The Yellow Roses of Texas
TTITLE6=Flop Eared Mule
TTITLE7=Oh Freedom
TTITLE8=Red River Valley
TTITLE9=Worried Man
TTITLE10=Down in The Valley
TTITLE11=Wildwood Flower
TTITLE12=She's my Dream
EXTD=Country and Western Music
EXTT0=
EXTT1=
EXTT2=
EXTT3=
EXTT4=
EXTT5=
EXTT6=
EXTT7=
EXTT8=
EXTT9=
EXTT10=
EXTT11=
EXTT12=
PLAYORDER=
